<?xml version="1.0" encoding="utf-8"?>
<!-- Generator: Adobe Illustrator 25.3.1, SVG Export Plug-In . SVG Version: 6.00 Build 0)  -->
<svg version="1.1" id="Layer_1" xmlns="http://www.w3.org/2000/svg" xmlns:xlink="http://www.w3.org/1999/xlink" x="0px" y="0px"
	 viewBox="0 0 50 42" style="enable-background:new 0 0 50 42;" xml:space="preserve">
<style type="text/css">
	.st0{fill:#615B56;}
</style>
<path class="st0" d="M45,3.7L7.6,41.1c-0.9,0.9-2.3,1-3,0.2l0,0c-0.8-0.8-0.7-2.1,0.2-3L42.2,0.9c0.9-0.9,2.3-1,3-0.2l0,0
	C46,1.5,45.9,2.8,45,3.7z"/>
<path class="st0" d="M42.2,41.1L4.8,3.7c-0.9-0.9-1-2.3-0.2-3l0,0c0.8-0.8,2.1-0.7,3,0.2L45,38.2c0.9,0.9,1,2.3,0.2,3l0,0
	C44.4,42,43,41.9,42.2,41.1z"/>
</svg>
