<svg id="214aa6a8-6aae-4350-b3d5-a28a5032796e" data-name="Layer 1" xmlns="http://www.w3.org/2000/svg" viewBox="0 0 62.25 37.3"><title>Yarn-Yarn logo_ball</title><path d="M62.28,26.23a1.13,1.13,0,0,0-.8-.32h0c-.93,0-4.69.05-13.87.05-6.25,0-7.25-4.59-8.41-9.91-.09-.39-.17-.77-.25-1.14-.15-.72-.29-1.4-.47-2.12a.8.8,0,0,0,0-.15s0-.07-.06-.16a11.84,11.84,0,0,0-.55-1.56l-.27-.56A12.28,12.28,0,0,0,36.79,9a11.25,11.25,0,0,0-1.64-2l0,0L35,6.7A20.34,20.34,0,0,0,14.19,1.21l-.61.17h0a16,16,0,0,0-3.23,1.5A20.47,20.47,0,0,0,6.64,5.75,21.36,21.36,0,0,0,3.45,9.63a18,18,0,0,0-2.16,4.76,23.41,23.41,0,0,0-.8,4.1,20.47,20.47,0,0,0,0,4.14,17.45,17.45,0,0,0,.87,4,13,13,0,0,0,1.22,2.5l0,0,.16.23.25.34.06.08.08.13a1.82,1.82,0,0,0,.15.23,12.69,12.69,0,0,0,3,2.87l.13.07a21.37,21.37,0,0,0,12.8,4.56,21.59,21.59,0,0,0,5.07-.59c.34-.08.7-.18,1.11-.31l.15,0a17.74,17.74,0,0,0,2.4-1,20.89,20.89,0,0,0,3.89-2.59,22.28,22.28,0,0,0,3.44-3.66,18,18,0,0,0,2.48-4.61,23.51,23.51,0,0,0,.82-2.8c1.22,3.09,3.49,6.18,9.1,6.18,9.21,0,13,0,13.94-.05a1.17,1.17,0,0,0,.79-.34,1.09,1.09,0,0,0,.31-.8A1.12,1.12,0,0,0,62.28,26.23ZM20.92,3.31A17.36,17.36,0,0,0,16.74,5,19.74,19.74,0,0,0,13,7.77a20.77,20.77,0,0,0-3,3.59,20.48,20.48,0,0,0-2.14,4.26,18.72,18.72,0,0,0-1.12,4.93A14.06,14.06,0,0,0,7,25.05,9.54,9.54,0,0,0,8.7,28.67a6.75,6.75,0,0,0,3.11,2.26,7.89,7.89,0,0,0,3.64.4A9.43,9.43,0,0,0,19,30.1a11.49,11.49,0,0,0,3.06-2.6,12.28,12.28,0,0,0,2.15-3.75,10.83,10.83,0,0,0,.68-3.19,7,7,0,0,0-.38-2.69,5.51,5.51,0,0,0-1.31-2A5.42,5.42,0,0,0,22.08,15a.81.81,0,0,0-.14-.12,6.69,6.69,0,0,0-5-.43c-.22.06-.44.14-.67.22l.16-.24a18.89,18.89,0,0,1,4.72-4.88,7.43,7.43,0,0,1,2.23-.93A5.51,5.51,0,0,1,26,8.69a4.73,4.73,0,0,1,2.36,1.56,7.37,7.37,0,0,1,1.41,2.81,12.21,12.21,0,0,1,.37,3.72A17.65,17.65,0,0,1,29.46,21a16.71,16.71,0,0,1-1.39,3.34,18.68,18.68,0,0,1-2.21,3.23,19,19,0,0,1-2.93,2.8,14.45,14.45,0,0,1-3.52,2,13.84,13.84,0,0,1-4,.91A12.57,12.57,0,0,1,11,32.8a11.66,11.66,0,0,1-3.57-1.66,10.23,10.23,0,0,1-2.5-2.45,11.63,11.63,0,0,1-1.55-3,15.38,15.38,0,0,1-.71-3.43,17.45,17.45,0,0,1,.05-3.61h0a20.22,20.22,0,0,1,.71-3.56,15.75,15.75,0,0,1,1.91-4.23A19.66,19.66,0,0,1,8.15,7.37a18.54,18.54,0,0,1,3.27-2.53,13.92,13.92,0,0,1,3.17-1.43,19.87,19.87,0,0,1,5.52-.8,18.44,18.44,0,0,1,3.15.27A14.38,14.38,0,0,0,20.92,3.31ZM19.43,34.74a17.44,17.44,0,0,0,4.07-2,19.56,19.56,0,0,0,3.5-3A20.71,20.71,0,0,0,29.76,26a20.51,20.51,0,0,0,1.85-4.39,19.4,19.4,0,0,0,.79-5,14.05,14.05,0,0,0-.58-4.46,9.38,9.38,0,0,0-1.9-3.51,6.77,6.77,0,0,0-3.25-2A7.71,7.71,0,0,0,23,6.42a9.29,9.29,0,0,0-3,1.16l-.28.15a.76.76,0,0,0-.13.1l.19.29-.27-.24a1.33,1.33,0,0,0-.2.16c-5.5,3.8-8.1,10.28-7.77,14.46a4.71,4.71,0,0,0,2.61,4.26,3.18,3.18,0,0,0,3.39-.51,4.36,4.36,0,0,0,1.3-4.3,3.68,3.68,0,0,0-3-2.68,1.09,1.09,0,0,0-.84.17,1.13,1.13,0,0,0,.4,2,1.44,1.44,0,0,1,1.26,1,2.16,2.16,0,0,1-.6,2,.9.9,0,0,1-1,.14,2.69,2.69,0,0,1-1.25-2.38,9.42,9.42,0,0,1,.34-3.06,4.81,4.81,0,0,1,3.4-2.66,4.79,4.79,0,0,1,1.8-.16h.13a4.47,4.47,0,0,1,1.44.44,2.82,2.82,0,0,1,1,.79,3.72,3.72,0,0,1,.69,1.56,5.85,5.85,0,0,1,0,1.87A8.76,8.76,0,0,1,22.14,23a9.74,9.74,0,0,1-1.72,3A9.52,9.52,0,0,1,18,28.12a7.45,7.45,0,0,1-2.73,1,5.34,5.34,0,0,1-2.67-.26,4.61,4.61,0,0,1-2.25-1.71,7.23,7.23,0,0,1-1.22-2.9A12.37,12.37,0,0,1,9,20.51a17.41,17.41,0,0,1,1-4.19,17.74,17.74,0,0,1,1.61-3.24A19.5,19.5,0,0,1,14,10a19.06,19.06,0,0,1,3.11-2.6,14.3,14.3,0,0,1,3.65-1.76A13.45,13.45,0,0,1,24.87,5a12.34,12.34,0,0,1,4.36.8A12,12,0,0,1,32.68,7.7a10.32,10.32,0,0,1,2.25,2.52c.07.12.14.23.2.35a2.75,2.75,0,0,1,.2.38l.09.16a19,19,0,0,1,1.27,4.09,14.86,14.86,0,0,1,.13,1.73,17.66,17.66,0,0,1-.29,3.6h0a21,21,0,0,1-.94,3.5,15.63,15.63,0,0,1-2.2,4.09,19.39,19.39,0,0,1-3.05,3.26,18.43,18.43,0,0,1-3.44,2.3,13.69,13.69,0,0,1-2.77,1.07,20.62,20.62,0,0,1-6.54.49A14.71,14.71,0,0,0,19.43,34.74Z" transform="translate(-0.38 -0.35)" fill="#ea8a23"/></svg>