<?xml version="1.0" encoding="utf-8"?>
<!-- Generator: Adobe Illustrator 25.3.1, SVG Export Plug-In . SVG Version: 6.00 Build 0)  -->
<svg version="1.1" id="Layer_1" xmlns="http://www.w3.org/2000/svg" xmlns:xlink="http://www.w3.org/1999/xlink" x="0px" y="0px"
	 viewBox="0 0 158.3 34.9" style="enable-background:new 0 0 158.3 34.9;" xml:space="preserve">
<style type="text/css">
	.st0{fill:#615B56;}
	.st1{fill:#EA8A23;}
</style>
<g>
	<path class="st0" d="M93.4,17.4c-0.2-0.3-0.7-0.4-1-0.1c-0.1,0.1-0.2,0.2-0.3,0.4c-0.1,0.3-0.3,0.6-0.5,1s-0.5,0.8-0.8,1.2
		c-0.3,0.4-0.6,0.7-1,1c-0.3,0.3-0.6,0.4-1,0.4c-0.2,0-0.3,0-0.4-0.1s-0.2-0.2-0.2-0.3c-0.1-0.1-0.1-0.3-0.1-0.5s0-0.4,0-0.7
		c0-0.2,0-0.4,0-0.6l0.1-1.2c0-0.2,0-0.4,0-0.5c0-0.6-0.1-1.1-0.4-1.6s-0.8-0.7-1.4-0.7c-0.3,0-0.6,0.1-1,0.3
		c-0.3,0.2-0.6,0.4-1,0.8c-0.3,0.4-0.6,0.8-0.8,1.2c-0.3,0.4-0.5,0.8-0.8,1.2c-0.2,0.4-0.5,0.8-0.7,1.2c0-0.4,0.1-0.7,0.1-1.1
		s0.1-0.8,0.1-1.2c0-0.4,0-0.7,0-0.9c0-0.3,0-0.5-0.1-0.8c0-0.3-0.1-0.5-0.2-0.7s-0.3-0.4-0.5-0.5s-0.4-0.2-0.7-0.2
		c-0.5,0-0.9,0.3-1.4,0.9c-0.4,0.5-0.8,1.3-1.3,2.4v0.1c-0.2,0.3-0.3,0.6-0.6,1c-0.2,0.4-0.5,0.8-0.8,1.2c-0.3,0.4-0.6,0.7-1,1
		c-0.3,0.2-0.7,0.4-1.1,0.4c-0.1,0-0.2,0-0.4-0.1c-0.1,0-0.3-0.1-0.4-0.2s-0.2-0.3-0.3-0.5c-0.1-0.2-0.1-0.5-0.1-0.8
		c0-0.2,0-0.5,0-0.7c0-0.3,0.1-0.5,0.1-0.8s0.1-0.5,0.1-0.8s0-0.5,0-0.8c0-0.6-0.2-1.1-0.5-1.4c-0.4-0.4-1.1-0.5-2-0.4
		c-0.1,0-0.2,0-0.3,0c0-0.1,0-0.3,0-0.5c0-0.3-0.1-0.6-0.2-0.8c-0.1-0.3-0.2-0.5-0.4-0.7c-0.4-0.4-1-0.5-1.5,0
		c-0.2,0.2-0.4,0.5-0.6,0.8s-0.3,0.6-0.4,0.9s-0.2,0.6-0.2,0.8c0,0.3,0.1,0.5,0.2,0.7s0.3,0.3,0.5,0.4s0.4,0.1,0.6,0.1
		c0.1,0,0.2,0,0.2,0c-0.1,0.3-0.1,0.5-0.2,0.7s-0.2,0.5-0.3,0.6c-0.1,0.2-0.1,0.2-0.2,0.4c-0.1,0.3-0.3,0.6-0.5,0.9
		s-0.3,0.5-0.6,0.8c-0.2,0.3-0.4,0.5-0.6,0.7s-0.4,0.4-0.6,0.5c-0.5,0.3-1,0.2-1.3-0.1c-0.2-0.2-0.3-0.5-0.4-0.8s-0.2-0.7-0.2-1
		s0-0.6-0.1-0.8c0-0.2-0.1-0.4-0.2-0.5c-0.3-0.3-0.8-0.3-1.1,0c-0.2,0.1-0.3,0.3-0.3,0.5c-0.1,0.5-0.2,0.9-0.3,1.3
		c-0.2,0.4-0.3,0.7-0.5,0.9c-0.2,0.2-0.4,0.4-0.6,0.5c-0.5,0.3-0.8,0.2-1,0c-0.1-0.1-0.2-0.2-0.3-0.3c-0.1-0.1-0.1-0.3-0.2-0.5
		c0-0.2-0.1-0.4-0.1-0.5c0-0.6,0.1-1.1,0.3-1.5c0.2-0.4,0.4-0.8,0.7-1c0.3-0.3,0.6-0.5,0.9-0.6c0.5-0.2,1-0.2,1.4-0.1
		c0.1,0,0.3,0.1,0.4,0.1c0.1,0.1,0.2,0.1,0.2,0.1c0.1,0,0.1,0.1,0.1,0.1c0.3,0.3,0.8,0.3,1.2,0c0.2-0.2,0.2-0.4,0.2-0.6
		s-0.1-0.4-0.2-0.6c0,0-0.1-0.1-0.2-0.2s-0.3-0.2-0.5-0.3c-0.2-0.1-0.4-0.2-0.7-0.3c-0.7-0.2-1.6-0.2-2.5,0.2c-0.5,0.2-1,0.5-1.4,1
		c-0.4,0.4-0.8,1-1.1,1.6c-0.3,0.6-0.4,1.4-0.4,2.2c0,0.4,0.1,0.8,0.2,1.2c0.1,0.4,0.3,0.7,0.5,0.9c0.2,0.3,0.5,0.5,0.9,0.6
		c0.8,0.3,1.8,0.3,2.7-0.3c0.4-0.3,0.7-0.6,1-1c0.2,0.4,0.4,0.8,0.8,1c0.4,0.4,1,0.6,1.6,0.6c0.5,0,0.9-0.1,1.3-0.3
		c0.4-0.2,0.8-0.5,1.1-0.8c0.3-0.3,0.6-0.7,0.9-1c0.3-0.4,0.5-0.7,0.7-1.1c0.2-0.3,0.4-0.6,0.5-0.9c0,0,0.3-0.6,0.3-0.7
		s0.1-0.3,0.1-0.4c0.1-0.2,0.1-0.4,0.2-0.6c0-0.2,0.1-0.4,0.1-0.6c0.1,0,0.2,0,0.3,0h0.5c0.3,0,0.4,0.1,0.4,0.1S72,16.8,72,17
		c0,0.4,0,0.9-0.1,1.4s-0.2,1-0.2,1.5s0.1,1,0.2,1.4c0.2,0.4,0.4,0.8,0.6,1c0.3,0.3,0.6,0.5,0.9,0.6c0.4,0.1,0.7,0.2,1.1,0.2
		c0.6,0,1.2-0.2,1.7-0.5s1-0.7,1.4-1.2s0.8-1,1.1-1.5c0.3-0.5,0.5-0.9,0.7-1.3l0.1-0.2c0.4-0.9,0.6-1.5,0.9-1.8
		c0.1-0.1,0.1-0.2,0.1-0.2c0,0.2,0,0.4,0,0.7c0,0.2,0,0.4,0,0.7c0,0.3,0,0.6-0.1,0.9l-0.1,1c0,0.3-0.1,0.6-0.1,0.9l-0.1,0.7
		c0,0.2,0,0.4,0,0.4c0,0.4,0.1,0.7,0.3,0.9c0.4,0.4,1.1,0.5,1.6,0.1c0.2-0.2,0.5-0.5,0.7-0.9c0.1-0.2,0.2-0.5,0.4-0.8
		c0.2-0.3,0.4-0.7,0.6-1.1s0.4-0.7,0.7-1.1c0.2-0.4,0.5-0.7,0.7-1s0.4-0.5,0.6-0.7s0.3-0.2,0.4-0.2c0,0,0,0,0.1,0.1
		c0,0,0.1,0.1,0.1,0.5c0,0.2,0,0.4,0,0.6s0,0.4-0.1,0.6c0,0.2,0,0.4-0.1,0.6c0,0.2,0,0.4,0,0.5c0,0.4,0,0.7,0.1,1.1s0.2,0.7,0.4,1
		c0.2,0.3,0.4,0.6,0.7,0.8c0.3,0.2,0.7,0.3,1.2,0.3c0.4,0,0.9-0.1,1.3-0.3c0.4-0.2,0.7-0.5,1.1-0.8c0.3-0.3,0.6-0.7,0.9-1
		c0.3-0.4,0.5-0.7,0.7-1.1c0.2-0.3,0.4-0.6,0.5-0.9l0.2-0.5c0-0.1,0.1-0.2,0.1-0.3C93.6,17.8,93.6,17.6,93.4,17.4z M69.1,15.1
		c0-0.1,0-0.2,0.1-0.3c0-0.1,0.1-0.2,0.1-0.3s0.1-0.2,0.1-0.3c0-0.1,0.1-0.1,0.1-0.1s0.1,0,0.1,0.1s0,0.2,0.1,0.3c0,0.1,0,0.2,0,0.3
		c0,0.1,0,0.2,0,0.3H69.1z"/>
	<path class="st0" d="M57.4,20.7c-0.1,0-0.3,0-0.6,0.1c-0.3,0.1-0.6,0.1-1,0.2s-0.8,0.2-1.2,0.3c-0.3,0.1-0.6,0.2-1,0.3
		c0-0.5-0.1-0.9-0.1-1.4c0-0.6,0-1.2,0-1.7c0-0.6,0-1.3,0.1-2.1c0-0.8,0.1-1.5,0.2-2.3s0.1-1.5,0.2-2.3c0.1-0.7,0.2-1.4,0.2-2
		c0.1-0.8,0.2-1.5,0.3-2.2L55,4.5c0.1-0.5,0.1-0.6,0.1-0.6c0-0.2-0.1-0.4-0.2-0.6C54.6,3,54.1,3,53.8,3.2c-0.2,0.1-0.2,0.3-0.3,0.5
		c0,0,0,0.2-0.1,0.6s-0.2,0.9-0.3,1.5C53,6.4,52.8,7.2,52.6,8c-0.2,0.8-0.5,1.7-0.7,2.6c-0.3,0.9-0.6,1.8-0.9,2.7
		c-0.3,0.9-0.7,1.7-1.1,2.5c-1,2-2,3.5-3.1,4.5c-1,1-2.1,1.5-3.1,1.5c-0.6,0-1.1-0.1-1.5-0.3c-0.4-0.2-0.7-0.4-0.9-0.8
		c-0.2-0.3-0.4-0.7-0.5-1.2s-0.2-1-0.2-1.6s0.1-1.3,0.2-2.1c0.1-0.7,0.2-1.5,0.4-2.3c0.2-0.8,0.3-1.6,0.5-2.4s0.4-1.6,0.5-2.4
		c0.1-0.4,0.1-0.7,0.2-1.1c0-0.3,0-0.7,0-1c0-0.9-0.1-1.8-0.4-2.6c-0.3-0.8-0.7-1.5-1.2-2.1s-1.2-1.1-1.9-1.4
		C38.1,0.2,37.3,0,36.3,0c-1.1,0-2.2,0.2-3.3,0.6c-1,0.4-1.9,1-2.7,1.8c-0.8,0.8-1.4,1.7-1.8,2.8c-0.4,1.1-0.7,2.3-0.7,3.6
		c0,0.9,0.1,1.8,0.3,2.5c0.2,0.7,0.5,1.3,0.8,1.8s0.7,1,1.1,1.3s0.8,0.6,1.2,0.8c0.4,0.2,0.7,0.3,1,0.4h0.1h0.1
		c0.2,0,0.3,0.1,0.4,0.1h0.1c0.1,0,0.3,0,0.4,0c0.4-0.1,0.7-0.2,1.1-0.4c0.4-0.3,0.8-0.7,1-1.3c0.2-0.6,0.3-1.2,0.3-1.9
		c0-1.1-0.5-2.3-0.6-2.5s-0.3-0.3-0.5-0.3c-0.2-0.1-0.4,0-0.6,0.1s-0.3,0.3-0.4,0.5s0,0.4,0,0.6c0.2,0.5,0.3,0.9,0.4,1.3
		s0.1,0.7,0,1c0,0.3-0.1,0.5-0.2,0.7s-0.2,0.3-0.3,0.4c-0.2,0.1-0.3,0.2-0.5,0.2c0,0-0.1,0-0.2,0c-0.6-0.1-1.1-0.3-1.5-0.7
		c-0.5-0.3-0.8-0.8-1.1-1.3c-0.3-0.5-0.5-1.1-0.7-1.7c-0.1-0.6-0.2-1.2-0.2-1.8c0-1,0.2-2,0.5-2.8c0.4-0.9,0.8-1.6,1.5-2.2
		c0.6-0.6,1.3-1.1,2.1-1.5c0.8-0.4,1.7-0.5,2.6-0.5c0.7,0,1.4,0.1,1.9,0.4c0.6,0.2,1,0.6,1.4,1s0.7,1,0.9,1.6c0.2,0.6,0.3,1.3,0.3,2
		c0,0.6-0.1,1.3-0.2,2.1c-0.2,0.7-0.3,1.5-0.5,2.2c-0.3,1.2-0.5,2.4-0.7,3.6s-0.3,2.3-0.3,3.4c0,0.8,0.1,1.5,0.3,2.2
		c0.2,0.7,0.5,1.2,0.9,1.7s0.9,0.8,1.5,1.1c0.6,0.3,1.3,0.4,2.1,0.4c0.9,0,1.8-0.2,2.6-0.7c0.8-0.5,1.7-1.2,2.4-2.1
		c0.8-0.9,1.5-2,2.2-3.3c0.4-0.8,0.9-1.7,1.3-2.7c0,0.4-0.1,0.9-0.1,1.3c0,0.5-0.1,1-0.1,1.4s0,0.8,0,1.1c0,0.7,0,1.3,0.1,2
		c0,0.6,0.1,1.2,0.1,1.8c-1.2,0.6-2.2,1.2-3.1,1.9c-0.9,0.7-1.7,1.5-2.3,2.3c-0.6,0.8-1,1.6-1.3,2.4S45,30.2,45,30.9
		c0,0.5,0.1,1.1,0.3,1.5c0.2,0.5,0.4,0.9,0.7,1.3c0.3,0.4,0.7,0.7,1.2,0.9c0.5,0.2,1,0.3,1.6,0.3c1,0,1.8-0.3,2.5-0.8s1.2-1.2,1.6-2
		s0.7-1.7,0.8-2.8c0.2-1,0.2-2.1,0.2-3.1c0-0.5,0-1.1,0-1.6s0-1-0.1-1.4c0.4-0.2,0.8-0.3,1.3-0.5c0.5-0.1,0.9-0.3,1.2-0.3
		c0.4-0.1,0.7-0.2,0.9-0.2c0.2,0,0.3-0.1,0.4-0.1c0.7-0.1,0.8-0.6,0.8-0.8c0-0.2-0.1-0.4-0.2-0.6C58,20.8,57.7,20.7,57.4,20.7z
		 M52.2,26.4c0,0.5,0,1-0.1,1.5c0,0.5-0.1,1.1-0.2,1.6s-0.2,1-0.4,1.5c-0.2,0.5-0.4,0.9-0.7,1.3c-0.3,0.4-0.6,0.7-0.9,0.9
		c-0.4,0.2-0.8,0.3-1.3,0.3c-0.3,0-0.6-0.1-0.9-0.2s-0.5-0.3-0.6-0.5c-0.2-0.2-0.3-0.5-0.4-0.7c-0.1-0.3-0.1-0.6-0.1-0.9
		c0-0.5,0.1-1.1,0.4-1.8c0.3-0.6,0.6-1.3,1.1-2s1.1-1.3,1.9-1.9c0.6-0.5,1.4-1,2.2-1.4v1C52.2,25.6,52.2,26,52.2,26.4z"/>
</g>
<g>
	<path class="st0" d="M122.3,20.7c-0.1,0-0.3,0-0.6,0.1c-0.3,0.1-0.6,0.1-1,0.2s-0.8,0.2-1.2,0.3c-0.3,0.1-0.6,0.2-1,0.3
		c0-0.5-0.1-0.9-0.1-1.4c0-0.6,0-1.1,0-1.7s0-1.3,0.1-2.1c0-0.8,0.1-1.5,0.2-2.3s0.1-1.5,0.2-2.3c0.1-0.7,0.2-1.4,0.2-2
		c0.1-0.8,0.2-1.5,0.3-2.2l0.5-3.1C120,4,120,4,120,3.9c0-0.2-0.1-0.4-0.2-0.6c-0.3-0.3-0.8-0.4-1.1-0.1c-0.2,0.1-0.2,0.3-0.3,0.5
		c0,0,0,0.2-0.1,0.6s-0.2,0.9-0.3,1.5c-0.1,0.6-0.3,1.4-0.5,2.2c-0.2,0.8-0.5,1.7-0.7,2.6c-0.3,0.9-0.6,1.8-0.9,2.7
		c-0.3,0.9-0.7,1.7-1.1,2.5c-1,2-2,3.5-3.1,4.5c-1,1-2.1,1.5-3.1,1.5c-0.6,0-1.1-0.1-1.5-0.3c-0.4-0.2-0.7-0.4-0.9-0.8
		c-0.2-0.3-0.4-0.7-0.5-1.2s-0.2-1-0.2-1.6s0.1-1.3,0.2-2.1c0.1-0.7,0.2-1.5,0.4-2.3c0.2-0.8,0.3-1.6,0.5-2.4s0.4-1.6,0.5-2.4
		c0.1-0.4,0.1-0.7,0.2-1.1c0-0.4,0-0.7,0-1c0-0.9-0.1-1.8-0.4-2.6c-0.3-0.8-0.7-1.5-1.2-2.1s-1.2-1.1-1.9-1.4S102.2,0,101.2,0
		c-1.1,0-2.2,0.2-3.3,0.6c-1,0.4-1.9,1-2.7,1.8s-1.4,1.7-1.8,2.8c-0.4,1.1-0.7,2.3-0.7,3.6c0,0.9,0.1,1.8,0.3,2.5
		c0.2,0.7,0.5,1.3,0.8,1.8s0.7,1,1.1,1.3s0.8,0.6,1.2,0.8c0.4,0.2,0.7,0.3,1,0.4h0.1h0.1c0.2,0,0.3,0.1,0.4,0.1h0.1
		c0.1,0,0.3,0,0.4,0c0.4-0.1,0.7-0.2,1.1-0.4c0.4-0.3,0.8-0.7,1-1.3c0.2-0.6,0.3-1.2,0.3-1.9c0-1.1-0.5-2.3-0.6-2.5
		s-0.3-0.3-0.5-0.3c-0.2-0.1-0.4,0-0.6,0.1s-0.3,0.3-0.4,0.5s0,0.4,0,0.6c0.2,0.5,0.3,0.9,0.4,1.3s0.1,0.7,0,1
		c0,0.3-0.1,0.5-0.2,0.7s-0.2,0.3-0.3,0.4c-0.2,0.1-0.3,0.2-0.5,0.2c0,0-0.1,0-0.2,0c-0.6-0.1-1.1-0.3-1.5-0.7
		c-0.5-0.4-0.9-0.8-1.1-1.3c-0.3-0.5-0.5-1.1-0.7-1.7c-0.1-0.6-0.2-1.2-0.2-1.8c0-1,0.2-2,0.5-2.8c0.4-0.9,0.8-1.6,1.5-2.2
		c0.6-0.6,1.3-1.1,2.1-1.5c0.8-0.4,1.7-0.5,2.6-0.5c0.7,0,1.4,0.1,1.9,0.4c0.6,0.2,1,0.6,1.4,1s0.7,1,0.9,1.6c0.2,0.6,0.3,1.3,0.3,2
		c0,0.6-0.1,1.3-0.2,2.1c-0.2,0.7-0.3,1.5-0.5,2.2c-0.3,1.2-0.5,2.5-0.7,3.6c-0.2,1.2-0.3,2.3-0.3,3.4c0,0.8,0.1,1.5,0.3,2.2
		c0.2,0.7,0.5,1.2,0.9,1.7s0.9,0.8,1.5,1.1c0.6,0.3,1.3,0.4,2.1,0.4c0.9,0,1.8-0.2,2.6-0.7c0.8-0.5,1.7-1.2,2.4-2.1
		c0.8-0.9,1.5-2,2.2-3.3c0.4-0.8,0.9-1.7,1.3-2.7c0,0.4-0.1,0.9-0.1,1.3c0,0.5-0.1,1-0.1,1.4s0,0.8,0,1.1c0,0.7,0,1.3,0.1,2
		c0,0.6,0.1,1.2,0.1,1.8c-1.2,0.6-2.2,1.2-3.1,1.9c-0.9,0.7-1.7,1.5-2.3,2.3c-0.6,0.8-1,1.6-1.3,2.4s-0.4,1.5-0.4,2.2
		c0,0.5,0.1,1.1,0.3,1.5c0.2,0.5,0.4,0.9,0.7,1.3c0.3,0.4,0.7,0.7,1.2,0.9c0.5,0.2,1,0.3,1.6,0.3c1,0,1.8-0.3,2.5-0.8s1.2-1.2,1.6-2
		s0.7-1.7,0.8-2.8c0.2-1,0.2-2.1,0.2-3.1c0-0.5,0-1.1,0-1.6s0-1-0.1-1.4c0.4-0.2,0.9-0.3,1.3-0.5c0.5-0.1,0.9-0.3,1.2-0.3
		c0.4-0.1,0.7-0.2,0.9-0.2c0.2,0,0.3-0.1,0.4-0.1c0.7-0.1,0.8-0.6,0.8-0.8c0-0.2-0.1-0.4-0.2-0.6C122.9,20.8,122.7,20.7,122.3,20.7z
		 M117.1,26.4c0,0.4,0,0.9-0.1,1.5c0,0.5-0.1,1.1-0.2,1.6s-0.2,1-0.4,1.5c-0.2,0.5-0.4,0.9-0.7,1.3c-0.3,0.4-0.6,0.7-0.9,0.9
		c-0.4,0.2-0.8,0.3-1.3,0.3c-0.3,0-0.6-0.1-0.9-0.2s-0.5-0.3-0.6-0.5c-0.2-0.2-0.3-0.5-0.4-0.7c-0.1-0.3-0.1-0.6-0.1-0.9
		c0-0.5,0.1-1.1,0.4-1.8c0.3-0.6,0.6-1.3,1.1-2s1.1-1.3,1.9-1.9c0.6-0.5,1.4-1,2.2-1.4v1C117.1,25.6,117.1,26,117.1,26.4z"/>
	<path class="st0" d="M158.3,17.4L158.3,17.4c-0.3-0.3-0.7-0.4-1-0.1c-0.1,0.1-0.2,0.2-0.3,0.4c-0.1,0.3-0.3,0.6-0.5,1
		s-0.5,0.8-0.8,1.2c-0.3,0.4-0.6,0.7-1,1c-0.3,0.3-0.6,0.4-1,0.4c-0.2,0-0.3,0-0.4-0.1s-0.2-0.2-0.2-0.3c-0.1-0.1-0.1-0.3-0.1-0.5
		s0-0.4,0-0.7c0-0.2,0-0.4,0-0.6v-0.6c0-0.2,0-0.4,0-0.6s0-0.4,0-0.5c0-0.6-0.1-1.1-0.4-1.6s-0.8-0.7-1.4-0.7c-0.3,0-0.6,0.1-1,0.3
		c-0.3,0.2-0.6,0.4-1,0.8c-0.3,0.4-0.6,0.8-0.8,1.2c-0.3,0.4-0.5,0.8-0.8,1.2c-0.2,0.4-0.5,0.8-0.7,1.2c0-0.4,0.1-0.7,0.1-1.1
		s0.1-0.8,0.1-1.2c0-0.4,0-0.7,0-0.9c0-0.3,0-0.5-0.1-0.8c0-0.3-0.1-0.5-0.2-0.7s-0.3-0.4-0.5-0.5s-0.5-0.2-0.7-0.2
		c-0.5,0-0.9,0.3-1.4,0.9c-0.4,0.5-1.2,2.3-1.3,2.4s-0.4,0.7-0.6,1.1s-0.5,0.8-0.8,1.2c-0.3,0.4-0.6,0.7-1,1
		c-0.3,0.2-0.7,0.4-1.1,0.4c-0.1,0-0.2,0-0.4-0.1c-0.1,0-0.3-0.1-0.4-0.2s-0.2-0.3-0.3-0.5c-0.1-0.2-0.1-0.5-0.1-0.8
		c0-0.2,0-0.5,0-0.7c0-0.3,0.1-0.5,0.1-0.8s0.1-0.5,0.1-0.8s0-0.5,0-0.8c0-0.6-0.2-1.1-0.5-1.4c-0.4-0.4-1.1-0.5-2-0.4
		c-0.1,0-0.2,0-0.3,0c0-0.1,0-0.3,0-0.5c0-0.3-0.1-0.6-0.2-0.8c-0.1-0.3-0.2-0.5-0.4-0.7c-0.4-0.4-1-0.5-1.5,0
		c-0.2,0.2-0.4,0.5-0.6,0.8s-0.3,0.6-0.4,0.9s-0.2,0.6-0.2,0.8c0,0.3,0.1,0.5,0.2,0.7s0.3,0.3,0.5,0.4s0.4,0.1,0.6,0.1
		c0.1,0,0.2,0,0.2,0c-0.1,0.3-0.1,0.5-0.2,0.7c-0.1,0.4-0.4,0.9-0.5,1.2c-0.1,0.3-0.3,0.5-0.4,0.8c-0.2,0.3-0.3,0.5-0.6,0.8
		c-0.2,0.3-0.4,0.5-0.6,0.7s-0.4,0.4-0.6,0.5c-0.5,0.3-1,0.2-1.3-0.1c-0.2-0.2-0.3-0.5-0.4-0.8s-0.2-0.7-0.2-1s0-0.6-0.1-0.8
		c0-0.2-0.1-0.4-0.2-0.5c-0.3-0.3-0.8-0.3-1.1,0c-0.2,0.1-0.2,0.3-0.3,0.5c-0.1,0.5-0.2,0.9-0.3,1.3c-0.2,0.4-0.3,0.7-0.5,0.9
		c-0.2,0.2-0.4,0.4-0.6,0.5c-0.5,0.3-0.8,0.2-1,0c-0.1-0.1-0.2-0.2-0.3-0.3c-0.1-0.1-0.1-0.3-0.2-0.5c0-0.2-0.1-0.4-0.1-0.5
		c0-0.6,0.1-1.1,0.3-1.5c0.2-0.4,0.4-0.8,0.7-1c0.3-0.3,0.6-0.5,0.9-0.6c0.5-0.2,1-0.2,1.4-0.1c0.1,0,0.3,0.1,0.4,0.1
		c0.1,0.1,0.2,0.1,0.2,0.1c0.1,0,0.1,0.1,0.1,0.1c0.3,0.3,0.8,0.3,1.2,0c0.2-0.2,0.2-0.4,0.2-0.6s-0.1-0.4-0.2-0.6
		c0,0-0.1-0.1-0.2-0.2s-0.3-0.2-0.5-0.3c-0.2-0.1-0.4-0.2-0.7-0.3c-0.7-0.2-1.6-0.2-2.5,0.2c-0.5,0.2-1,0.5-1.4,1
		c-0.4,0.4-0.8,1-1.1,1.6c-0.3,0.6-0.4,1.4-0.4,2.2c0,0.4,0.1,0.8,0.2,1.2c0.1,0.4,0.3,0.7,0.5,0.9c0.2,0.3,0.5,0.5,0.9,0.6
		c0.8,0.3,1.8,0.3,2.7-0.3c0.4-0.3,0.7-0.6,1-1c0.2,0.4,0.4,0.8,0.8,1c0.4,0.4,1,0.6,1.6,0.6c0.5,0,0.9-0.1,1.3-0.3
		c0.4-0.2,0.8-0.5,1.1-0.8c0.3-0.3,0.6-0.7,0.9-1c0.3-0.4,0.5-0.7,0.7-1.1c0.2-0.3,0.4-0.6,0.5-0.9c0,0,0.3-0.6,0.3-0.7
		s0.1-0.3,0.1-0.4c0.1-0.2,0.1-0.4,0.2-0.6c0-0.2,0.1-0.4,0.1-0.6c0.1,0,0.2,0,0.3,0h0.5c0.3,0,0.4,0.1,0.4,0.1s0.1,0.1,0.1,0.3
		c0,0.4,0,0.9-0.1,1.4s-0.2,1-0.2,1.5s0.1,1,0.2,1.4c0.2,0.4,0.4,0.8,0.6,1c0.3,0.3,0.6,0.5,0.9,0.6c0.4,0.1,0.7,0.2,1.1,0.2
		c0.6,0,1.2-0.2,1.7-0.5s1-0.7,1.4-1.2s0.8-1,1.1-1.5c0.3-0.5,0.7-1.1,0.8-1.4s0.6-1.4,0.9-1.9c0.1-0.1,0.1-0.2,0.1-0.2
		c0,0.2,0,0.4,0,0.7c0,0.2,0,0.4,0,0.7c0,0.3,0,0.6-0.1,0.9l-0.1,1c0,0.3-0.1,0.6-0.1,0.9s-0.1,0.5-0.1,0.7s0,0.4,0,0.4
		c0,0.4,0.1,0.7,0.3,0.9c0.4,0.4,1.1,0.5,1.6,0.1c0.2-0.2,0.5-0.5,0.7-1c0.1-0.2,0.2-0.5,0.4-0.8c0.2-0.3,0.4-0.7,0.6-1.1
		s0.4-0.7,0.7-1.1c0.2-0.4,0.5-0.7,0.7-1s0.4-0.5,0.6-0.7s0.3-0.2,0.4-0.2c0,0,0,0,0.1,0.1c0,0,0.1,0.1,0.1,0.5c0,0.2,0,0.4,0,0.6
		s0,0.4-0.1,0.6c0,0.2,0,0.4-0.1,0.6c0,0.2,0,0.4,0,0.5c0,0.4,0,0.7,0.1,1.1s0.2,0.7,0.4,1c0.2,0.3,0.4,0.6,0.7,0.8
		c0.6,0.4,1.7,0.4,2.5,0c0.4-0.2,0.7-0.5,1.1-0.8c0.3-0.3,0.6-0.7,0.9-1c0.3-0.4,0.5-0.7,0.7-1.1c0.2-0.3,0.4-0.6,0.5-0.9
		c0.1-0.2,0.2-0.4,0.2-0.5s0.1-0.2,0.1-0.3C158.6,17.8,158.5,17.6,158.3,17.4z M134.1,15.1c0-0.1,0-0.2,0.1-0.3
		c0-0.1,0.1-0.2,0.1-0.3s0.1-0.2,0.1-0.3c0-0.1,0.1-0.1,0.1-0.1s0.1,0,0.1,0.1s0,0.2,0.1,0.3c0,0.1,0,0.2,0,0.3c0,0.1,0,0.2,0,0.3
		H134.1z"/>
</g>
<path class="st1" d="M108.1,26L108.1,26c-0.2-0.1-0.4-0.2-0.6-0.2h-8c-0.1,0-0.3,0-0.4,0h-8c-0.1,0-0.3,0-0.4,0h-8
	c-0.1,0-0.3,0-0.4,0h-8c-0.1,0-0.3,0-0.4,0h-8c-0.1,0-0.3,0-0.4,0h-8c-0.2,0-0.4,0.1-0.6,0.3c-0.1,0.2-0.2,0.3-0.2,0.6
	c0,0.2,0.1,0.4,0.3,0.6c0.2,0.1,0.4,0.2,0.6,0.2h8c0.1,0,0.3,0,0.4,0h8c0.1,0,0.3,0,0.4,0h8c0.1,0,0.3,0,0.4,0h8c0.1,0,0.3,0,0.4,0
	h8c0.1,0,0.3,0,0.4,0h8c0.2,0,0.4-0.1,0.6-0.3c0.1-0.2,0.2-0.3,0.2-0.6C108.4,26.4,108.3,26.2,108.1,26z"/>
<path class="st1" d="M155.3,26L155.3,26c-0.2-0.1-0.4-0.2-0.6-0.2h-8c-0.1,0-0.3,0-0.4,0h-8c-0.1,0-0.3,0-0.4,0h-8
	c-0.1,0-0.3,0-0.4,0h-8c-0.2,0-0.4,0.1-0.6,0.3c-0.1,0.2-0.2,0.3-0.2,0.6c0,0.2,0.1,0.4,0.3,0.6c0.2,0.1,0.4,0.2,0.6,0.2h8
	c0.1,0,0.3,0,0.4,0h8c0.1,0,0.3,0,0.4,0h8c0.1,0,0.3,0,0.4,0h8c0.2,0,0.4-0.1,0.6-0.3c0.1-0.2,0.2-0.3,0.2-0.6
	C155.6,26.4,155.5,26.2,155.3,26z"/>
<path class="st1" d="M44.6,26c-0.2-0.2-0.4-0.2-0.6-0.2V26l0,0v-0.2c-0.7,0-3.4,0-10,0c-4.5,0-5.2-3.3-6.1-7.1
	c-0.1-0.3-0.1-0.6-0.2-0.8c-0.1-0.5-0.2-1-0.3-1.5v-0.1v-0.1c-0.1-0.4-0.2-0.8-0.4-1.1l-0.2-0.4c-0.2-0.3-0.3-0.7-0.5-1
	c-0.3-0.5-0.7-0.9-1.2-1.4l0,0l-0.2-0.2c-3.7-4-9.5-5.6-15-4L9.5,8.2l0,0C8.7,8.4,8,8.8,7.2,9.3c-0.9,0.6-1.8,1.2-2.7,2.1
	c-0.8,0.8-1.6,1.8-2.3,2.8c-0.7,1.1-1.2,2.2-1.6,3.4c-0.3,1-0.5,1.9-0.6,3c-0.1,1-0.1,2,0,3s0.3,2,0.6,2.9c0.2,0.6,0.5,1.2,0.9,1.8
	l0,0l0.1,0.2c0.1,0.1,0.1,0.2,0.2,0.2v0.1c0,0,0,0.1,0.1,0.1C1.9,29,2,29,2,29.1c0.6,0.8,1.3,1.5,2.1,2.1c0,0,0.1,0,0.1,0.1
	c1.6,1.2,4.9,3.3,9.2,3.3c1.2,0,2.5-0.1,3.7-0.4c0.2-0.1,0.5-0.1,0.8-0.2H18c0.6-0.2,1.2-0.4,1.7-0.7c1-0.5,1.9-1.1,2.8-1.9
	s1.7-1.6,2.5-2.6s1.4-2.1,1.8-3.3c0.2-0.7,0.4-1.3,0.6-2c0.9,2.2,2.5,4.5,6.6,4.5c6.6,0,9.4,0,10.1,0c0.2,0,0.4-0.1,0.6-0.2
	s0.2-0.4,0.2-0.6C44.8,26.4,44.7,26.2,44.6,26z M14.7,9.5c-1,0.3-2.1,0.7-3,1.2c-1,0.5-1.9,1.2-2.7,2c-0.8,0.8-1.5,1.6-2.2,2.6
	c-0.6,0.9-1.1,2-1.5,3.1c-0.4,1.2-0.7,2.4-0.8,3.6c-0.1,1.2,0,2.3,0.2,3.2c0.2,1,0.6,1.9,1.2,2.6s1.3,1.3,2.2,1.6
	c0.8,0.3,1.7,0.4,2.6,0.3s1.8-0.4,2.6-0.9c0.8-0.5,1.6-1.1,2.2-1.9c0.7-0.8,1.2-1.7,1.5-2.7c0.3-0.8,0.5-1.6,0.5-2.3
	c0-0.7-0.1-1.4-0.3-1.9c-0.2-0.6-0.5-1.1-0.9-1.5c-0.2-0.2-0.5-0.4-0.8-0.6l-0.1-0.1c-0.8-0.5-2.4-0.7-3.6-0.3
	c-0.2,0-0.3,0.1-0.5,0.2c0-0.1,0.1-0.1,0.1-0.2c0.9-1.4,2.1-2.6,3.4-3.5c0.6-0.3,1.1-0.6,1.6-0.7c0.7-0.1,1.3-0.1,1.9,0.1
	c0.7,0.2,1.3,0.6,1.7,1.1c0.5,0.6,0.8,1.2,1,2s0.3,1.7,0.3,2.7s-0.2,2-0.5,3.1c-0.2,0.8-0.6,1.6-1,2.4s-1,1.6-1.6,2.3
	c-0.6,0.7-1.3,1.4-2.1,2c-0.8,0.6-1.6,1.1-2.5,1.4c-0.9,0.4-1.9,0.6-2.9,0.7s-2.1,0-3.2-0.4c-1-0.3-1.9-0.7-2.6-1.2
	s-1.3-1.1-1.8-1.8C2.6,27,2.2,26.3,2,25.5c-0.3-0.8-0.4-1.6-0.5-2.5s-0.1-1.7,0-2.6l0,0c0.1-0.9,0.3-1.7,0.5-2.6
	c0.3-1.1,0.8-2.1,1.4-3s1.3-1.8,2-2.5s1.5-1.3,2.4-1.8c0.8-0.5,1.6-0.8,2.3-1c1.3-0.4,2.7-0.6,4-0.6c0.8,0,1.5,0.1,2.3,0.2
	C15.9,9.2,15.3,9.4,14.7,9.5z M13.7,32.2c1-0.3,2-0.8,2.9-1.4s1.8-1.3,2.5-2.2c0.8-0.8,1.4-1.7,2-2.7s1-2.1,1.3-3.2
	c0.4-1.2,0.5-2.4,0.6-3.6c0-1.2-0.1-2.3-0.4-3.2c-0.3-1-0.8-1.8-1.4-2.5s-1.4-1.2-2.3-1.5c-0.9-0.2-1.7-0.3-2.6-0.1
	c-0.8,0.1-1.5,0.4-2.2,0.8c-0.1,0-0.2,0.1-0.2,0.1s0,0-0.1,0.1l0.1,0.2l-0.2-0.2l-0.1,0.1c-4,2.7-5.8,7.4-5.6,10.4
	c0.1,1.5,0.8,2.6,1.9,3.1c0.8,0.4,1.8,0.2,2.4-0.4c0.8-0.7,1.2-2,0.9-3.1c-0.3-1-1.1-1.7-2.2-1.9c-0.2,0-0.4,0-0.6,0.1
	s-0.3,0.3-0.3,0.5c-0.1,0.4,0.2,0.9,0.6,1c0.5,0.1,0.8,0.3,0.9,0.8s-0.1,1.1-0.4,1.5c-0.2,0.2-0.5,0.2-0.8,0.1
	c-0.7-0.3-0.9-1.1-0.9-1.7c-0.1-0.7,0-1.4,0.2-2.2c0.4-0.9,1.2-1.6,2.5-1.9c0.4-0.1,0.9-0.2,1.3-0.1h0.1c0.3,0,0.7,0.1,1,0.3
	c0.3,0.2,0.6,0.4,0.7,0.6c0.2,0.3,0.4,0.7,0.5,1.1s0.1,0.9,0,1.3c-0.1,0.5-0.2,0.9-0.3,1.4c-0.3,0.8-0.7,1.6-1.2,2.2
	s-1.1,1.1-1.8,1.5c-0.6,0.4-1.3,0.6-2,0.7s-1.3,0-1.9-0.2c-0.7-0.2-1.2-0.7-1.6-1.2c-0.4-0.6-0.7-1.3-0.9-2.1C5.9,23.9,5.9,23,6,22
	s0.3-2,0.7-3c0.3-0.8,0.7-1.6,1.2-2.3c0.5-0.8,1.1-1.5,1.7-2.2c0.7-0.7,1.4-1.3,2.2-1.9c0.8-0.5,1.7-1,2.6-1.3s1.9-0.5,2.9-0.5
	s2.1,0.2,3.1,0.6s1.8,0.8,2.5,1.4c0.6,0.5,1.2,1.1,1.6,1.8c0.1,0.1,0.1,0.2,0.1,0.3c0.1,0.1,0.1,0.2,0.1,0.3l0.1,0.1
	c0.5,1,0.7,2,0.9,2.9c0.1,0.4,0.1,0.8,0.1,1.2c0,0.9,0,1.7-0.2,2.6l0,0c-0.2,0.9-0.4,1.7-0.7,2.5c-0.4,1.1-0.9,2.1-1.6,2.9
	c-0.7,0.9-1.4,1.7-2.2,2.3c-0.8,0.7-1.6,1.2-2.5,1.7c-0.6,0.3-1.3,0.6-2,0.8c-1.4,0.4-3,0.5-4.7,0.4C12.8,32.4,13.2,32.3,13.7,32.2z
	"/>
</svg>
